<?xml version="1.0" encoding="utf-8"?>
<!-- Generator: Adobe Illustrator 23.0.1, SVG Export Plug-In . SVG Version: 6.00 Build 0)  -->
<svg version="1.1" baseProfile="tiny" id="レイヤー_1"
	 xmlns="http://www.w3.org/2000/svg" xmlns:xlink="http://www.w3.org/1999/xlink" x="0px" y="0px" viewBox="0 0 1024 1024"
	 xml:space="preserve">
<g>
	<path d="M706.8,767.49h-78.88V476.91c0-35.05-6.57-61.27-19.72-78.65c-13.15-17.37-31.96-26.07-56.44-26.07
		c-10.58,0-20.48,1.44-29.69,4.31c-9.22,2.88-18.81,7.86-28.79,14.96c-9.97,7.1-20.85,16.7-32.64,28.79
		c-11.79,12.09-25.39,27.2-40.8,45.33v301.91h-78.88V126.95h78.88v185.41l-2.72,71.62c12.39-14.8,24.55-27.27,36.49-37.4
		c11.94-10.12,23.87-18.36,35.81-24.71c11.94-6.35,24.1-10.88,36.49-13.6c12.39-2.72,25.23-4.08,38.53-4.08
		c45.33,0,80.39,13.83,105.17,41.48c24.78,27.65,37.17,69.29,37.17,124.89V767.49z"/>
</g>
<path fill="#FBB03B" d="M123,674.93L94,703c0,0,215.47,228,425,228c226.23,0,371-199,371-199l37,31l3-116l-120,42l52.51,23.38
	c0,0-133.5,171.3-344.56,171.97C311,885,123,674.93,123,674.93z"/>
</svg>
